STARTFONT 2.1
FONT --Type-Medium-R-Normal--13-130-72-72-M-80-ISO8859-1
SIZE 13 72 72
FONTBOUNDINGBOX 8 13 0 -3
STARTPROPERTIES 23
_DEC_DEVICE_FONTNAMES "FM=Type"
FONTNAME_REGISTRY ""
FAMILY_NAME "Type"
FOUNDRY ""
WEIGHT_NAME "Medium"
SLANT "R"
SETWIDTH_NAME "Normal"
ADD_STYLE_NAME ""
PIXEL_SIZE 13
POINT_SIZE 130
RESOLUTION_X 72
RESOLUTION_Y 72
SPACING "M"
AVERAGE_WIDTH 80
CHARSET_REGISTRY "ISO8859"
CHARSET_ENCODING "1"
CHARSET_COLLECTIONS "ASCII ISO8859-1"
COPYRIGHT "Copyright (c) 1991-1993 Silicon Graphics, Inc."
FULL_NAME "Type"
FONT_ASCENT 10
FONT_DESCENT 3
CAP_HEIGHT 9
X_HEIGHT 6
ENDPROPERTIES
CHARS 190
STARTCHAR space
ENCODING 32
SWIDTH 617 0
DWIDTH 8 0
BBX 1 1 0 0
BITMAP
00
ENDCHAR
STARTCHAR exclam
ENCODING 33
SWIDTH 617 0
DWIDTH 8 0
BBX 1 9 3 0
BITMAP
80
80
80
80
80
80
00
80
80
ENDCHAR
STARTCHAR quotedbl
ENCODING 34
SWIDTH 617 0
DWIDTH 8 0
BBX 3 4 2 5
BITMAP
a0
a0
a0
a0
ENDCHAR
STARTCHAR numbersign
ENCODING 35
SWIDTH 617 0
DWIDTH 8 0
BBX 7 8 0 0
BITMAP
36
24
fe
24
48
fe
48
d8
ENDCHAR
STARTCHAR dollar
ENCODING 36
SWIDTH 617 0
DWIDTH 8 0
BBX 7 11 0 -1
BITMAP
10
10
7c
96
d0
7c
16
d2
7c
10
10
ENDCHAR
STARTCHAR percent
ENCODING 37
SWIDTH 617 0
DWIDTH 8 0
BBX 7 9 1 0
BITMAP
62
92
94
68
30
3c
52
92
8c
ENDCHAR
STARTCHAR ampersand
ENCODING 38
SWIDTH 617 0
DWIDTH 8 0
BBX 7 9 1 0
BITMAP
38
4c
48
36
76
92
8c
8e
72
ENDCHAR
STARTCHAR quoteright
ENCODING 39
SWIDTH 617 0
DWIDTH 8 0
BBX 2 4 2 6
BITMAP
40
40
40
80
ENDCHAR
STARTCHAR parenleft
ENCODING 40
SWIDTH 617 0
DWIDTH 8 0
BBX 3 11 3 -1
BITMAP
20
40
c0
80
80
80
80
80
c0
40
20
ENDCHAR
STARTCHAR parenright
ENCODING 41
SWIDTH 617 0
DWIDTH 8 0
BBX 3 11 3 -1
BITMAP
80
40
60
20
20
20
20
20
60
40
80
ENDCHAR
STARTCHAR asterisk
ENCODING 42
SWIDTH 617 0
DWIDTH 8 0
BBX 5 7 2 1
BITMAP
20
a8
f8
70
f8
a8
20
ENDCHAR
STARTCHAR plus
ENCODING 43
SWIDTH 617 0
DWIDTH 8 0
BBX 7 7 1 1
BITMAP
10
10
10
fe
10
10
10
ENDCHAR
STARTCHAR comma
ENCODING 44
SWIDTH 617 0
DWIDTH 8 0
BBX 2 4 2 -1
BITMAP
40
40
40
80
ENDCHAR
STARTCHAR minus
ENCODING 45
SWIDTH 617 0
DWIDTH 8 0
BBX 6 1 1 4
BITMAP
fc
ENDCHAR
STARTCHAR period
ENCODING 46
SWIDTH 617 0
DWIDTH 8 0
BBX 1 3 3 0
BITMAP
80
80
80
ENDCHAR
STARTCHAR slash
ENCODING 47
SWIDTH 617 0
DWIDTH 8 0
BBX 5 10 2 -1
BITMAP
08
08
10
10
20
20
40
40
80
80
ENDCHAR
STARTCHAR zero
ENCODING 48
SWIDTH 617 0
DWIDTH 8 0
BBX 6 8 1 0
BITMAP
78
84
84
84
84
84
84
78
ENDCHAR
STARTCHAR one
ENCODING 49
SWIDTH 617 0
DWIDTH 8 0
BBX 5 8 2 0
BITMAP
20
e0
20
20
20
20
20
f8
ENDCHAR
STARTCHAR two
ENCODING 50
SWIDTH 617 0
DWIDTH 8 0
BBX 6 8 1 0
BITMAP
78
c4
04
04
18
60
84
fc
ENDCHAR
STARTCHAR three
ENCODING 51
SWIDTH 617 0
DWIDTH 8 0
BBX 6 10 1 -2
BITMAP
fc
88
10
20
78
0c
04
04
c8
70
ENDCHAR
STARTCHAR four
ENCODING 52
SWIDTH 617 0
DWIDTH 8 0
BBX 6 10 1 -2
BITMAP
04
0c
14
24
44
84
fc
04
04
04
ENDCHAR
STARTCHAR five
ENCODING 53
SWIDTH 617 0
DWIDTH 8 0
BBX 6 10 1 -2
BITMAP
fc
80
80
f8
0c
04
04
04
c8
70
ENDCHAR
STARTCHAR six
ENCODING 54
SWIDTH 617 0
DWIDTH 8 0
BBX 6 10 1 0
BITMAP
18
20
40
80
b8
c4
84
84
84
78
ENDCHAR
STARTCHAR seven
ENCODING 55
SWIDTH 617 0
DWIDTH 8 0
BBX 6 10 1 -2
BITMAP
fc
84
08
08
10
10
20
20
40
40
ENDCHAR
STARTCHAR eight
ENCODING 56
SWIDTH 617 0
DWIDTH 8 0
BBX 6 9 1 0
BITMAP
78
84
84
84
78
84
84
84
78
ENDCHAR
STARTCHAR nine
ENCODING 57
SWIDTH 617 0
DWIDTH 8 0
BBX 6 10 1 -2
BITMAP
78
84
84
84
84
7c
04
08
10
60
ENDCHAR
STARTCHAR colon
ENCODING 58
SWIDTH 617 0
DWIDTH 8 0
BBX 1 8 3 0
BITMAP
80
80
80
00
00
80
80
80
ENDCHAR
STARTCHAR semicolon
ENCODING 59
SWIDTH 617 0
DWIDTH 8 0
BBX 2 9 2 -1
BITMAP
40
40
40
00
00
40
40
40
80
ENDCHAR
STARTCHAR less
ENCODING 60
SWIDTH 617 0
DWIDTH 8 0
BBX 5 9 1 0
BITMAP
08
10
20
40
80
40
20
10
08
ENDCHAR
STARTCHAR equal
ENCODING 61
SWIDTH 617 0
DWIDTH 8 0
BBX 6 5 0 2
BITMAP
fc
00
00
00
fc
ENDCHAR
STARTCHAR greater
ENCODING 62
SWIDTH 617 0
DWIDTH 8 0
BBX 5 9 0 0
BITMAP
80
40
20
10
08
10
20
40
80
ENDCHAR
STARTCHAR question
ENCODING 63
SWIDTH 617 0
DWIDTH 8 0
BBX 6 10 1 -1
BITMAP
78
cc
04
0c
08
10
10
00
10
10
ENDCHAR
STARTCHAR at
ENCODING 64
SWIDTH 617 0
DWIDTH 8 0
BBX 7 9 0 0
BITMAP
7c
82
8e
92
92
92
8e
80
7c
ENDCHAR
STARTCHAR A
ENCODING 65
SWIDTH 617 0
DWIDTH 8 0
BBX 8 9 0 0
BITMAP
08
08
14
14
24
3c
42
42
e7
ENDCHAR
STARTCHAR B
ENCODING 66
SWIDTH 617 0
DWIDTH 8 0
BBX 6 9 1 0
BITMAP
f8
44
44
44
78
44
44
44
f8
ENDCHAR
STARTCHAR C
ENCODING 67
SWIDTH 617 0
DWIDTH 8 0
BBX 6 9 1 0
BITMAP
78
cc
80
80
80
80
80
cc
78
ENDCHAR
STARTCHAR D
ENCODING 68
SWIDTH 617 0
DWIDTH 8 0
BBX 7 9 1 0
BITMAP
f8
4c
46
42
42
42
42
44
f8
ENDCHAR
STARTCHAR E
ENCODING 69
SWIDTH 617 0
DWIDTH 8 0
BBX 6 9 1 0
BITMAP
fc
44
40
40
70
40
40
44
fc
ENDCHAR
STARTCHAR F
ENCODING 70
SWIDTH 617 0
DWIDTH 8 0
BBX 6 9 1 0
BITMAP
fc
44
40
40
70
40
40
40
e0
ENDCHAR
STARTCHAR G
ENCODING 71
SWIDTH 617 0
DWIDTH 8 0
BBX 6 9 1 0
BITMAP
78
cc
80
80
9c
84
84
cc
78
ENDCHAR
STARTCHAR H
ENCODING 72
SWIDTH 617 0
DWIDTH 8 0
BBX 7 9 1 0
BITMAP
ee
44
44
44
7c
44
44
44
ee
ENDCHAR
STARTCHAR I
ENCODING 73
SWIDTH 617 0
DWIDTH 8 0
BBX 5 9 2 0
BITMAP
f8
20
20
20
20
20
20
20
f8
ENDCHAR
STARTCHAR J
ENCODING 74
SWIDTH 617 0
DWIDTH 8 0
BBX 6 9 1 0
BITMAP
1c
08
08
08
08
08
c8
d8
70
ENDCHAR
STARTCHAR K
ENCODING 75
SWIDTH 617 0
DWIDTH 8 0
BBX 8 9 0 0
BITMAP
e7
44
48
50
60
50
48
44
e7
ENDCHAR
STARTCHAR L
ENCODING 76
SWIDTH 617 0
DWIDTH 8 0
BBX 6 9 1 0
BITMAP
c0
40
40
40
40
40
40
44
fc
ENDCHAR
STARTCHAR M
ENCODING 77
SWIDTH 617 0
DWIDTH 8 0
BBX 8 9 0 0
BITMAP
c1
63
63
55
55
55
49
49
eb
ENDCHAR
STARTCHAR N
ENCODING 78
SWIDTH 617 0
DWIDTH 8 0
BBX 8 9 0 0
BITMAP
c7
62
52
52
4a
4a
46
42
e7
ENDCHAR
STARTCHAR O
ENCODING 79
SWIDTH 617 0
DWIDTH 8 0
BBX 7 9 1 0
BITMAP
3c
46
82
82
82
82
82
c4
78
ENDCHAR
STARTCHAR P
ENCODING 80
SWIDTH 617 0
DWIDTH 8 0
BBX 7 9 1 0
BITMAP
fc
46
42
42
46
7c
40
40
e0
ENDCHAR
STARTCHAR Q
ENCODING 81
SWIDTH 617 0
DWIDTH 8 0
BBX 7 11 1 -2
BITMAP
3c
46
82
82
82
82
82
c6
7c
06
06
ENDCHAR
STARTCHAR R
ENCODING 82
SWIDTH 617 0
DWIDTH 8 0
BBX 7 9 1 0
BITMAP
fc
46
42
46
7c
50
48
44
ee
ENDCHAR
STARTCHAR S
ENCODING 83
SWIDTH 617 0
DWIDTH 8 0
BBX 6 9 1 0
BITMAP
78
8c
80
c0
78
0c
04
84
f8
ENDCHAR
STARTCHAR T
ENCODING 84
SWIDTH 617 0
DWIDTH 8 0
BBX 7 9 1 0
BITMAP
fe
92
10
10
10
10
10
10
38
ENDCHAR
STARTCHAR U
ENCODING 85
SWIDTH 617 0
DWIDTH 8 0
BBX 8 9 0 0
BITMAP
e7
42
42
42
42
42
42
66
3c
ENDCHAR
STARTCHAR V
ENCODING 86
SWIDTH 617 0
DWIDTH 8 0
BBX 7 9 1 0
BITMAP
ee
44
44
44
28
28
28
10
10
ENDCHAR
STARTCHAR W
ENCODING 87
SWIDTH 617 0
DWIDTH 8 0
BBX 8 9 0 0
BITMAP
c3
81
81
81
5a
5a
5a
24
24
ENDCHAR
STARTCHAR X
ENCODING 88
SWIDTH 617 0
DWIDTH 8 0
BBX 8 9 0 0
BITMAP
e7
42
24
18
18
18
24
42
e7
ENDCHAR
STARTCHAR Y
ENCODING 89
SWIDTH 617 0
DWIDTH 8 0
BBX 7 9 1 0
BITMAP
c6
44
64
28
38
10
10
10
38
ENDCHAR
STARTCHAR Z
ENCODING 90
SWIDTH 617 0
DWIDTH 8 0
BBX 7 9 1 0
BITMAP
fe
82
04
08
38
20
40
82
fe
ENDCHAR
STARTCHAR bracketleft
ENCODING 91
SWIDTH 617 0
DWIDTH 8 0
BBX 3 11 2 -1
BITMAP
e0
80
80
80
80
80
80
80
80
80
e0
ENDCHAR
STARTCHAR backslash
ENCODING 92
SWIDTH 617 0
DWIDTH 8 0
BBX 5 10 1 -1
BITMAP
80
80
40
40
20
20
10
10
08
08
ENDCHAR
STARTCHAR bracketright
ENCODING 93
SWIDTH 617 0
DWIDTH 8 0
BBX 3 11 3 -1
BITMAP
e0
20
20
20
20
20
20
20
20
20
e0
ENDCHAR
STARTCHAR asciicircum
ENCODING 94
SWIDTH 617 0
DWIDTH 8 0
BBX 5 3 1 7
BITMAP
20
70
88
ENDCHAR
STARTCHAR underscore
ENCODING 95
SWIDTH 617 0
DWIDTH 8 0
BBX 7 1 0 -1
BITMAP
fe
ENDCHAR
STARTCHAR quoteleft
ENCODING 96
SWIDTH 617 0
DWIDTH 8 0
BBX 2 4 3 6
BITMAP
80
80
80
40
ENDCHAR
STARTCHAR a
ENCODING 97
SWIDTH 617 0
DWIDTH 8 0
BBX 7 6 1 0
BITMAP
78
04
7c
84
cc
76
ENDCHAR
STARTCHAR b
ENCODING 98
SWIDTH 617 0
DWIDTH 8 0
BBX 7 9 1 0
BITMAP
c0
40
40
5c
66
42
42
66
bc
ENDCHAR
STARTCHAR c
ENCODING 99
SWIDTH 617 0
DWIDTH 8 0
BBX 6 6 1 0
BITMAP
3c
48
80
80
cc
78
ENDCHAR
STARTCHAR d
ENCODING 100
SWIDTH 617 0
DWIDTH 8 0
BBX 7 9 1 0
BITMAP
0c
04
04
34
4c
84
84
cc
76
ENDCHAR
STARTCHAR e
ENCODING 101
SWIDTH 617 0
DWIDTH 8 0
BBX 6 6 1 0
BITMAP
78
84
fc
80
c4
78
ENDCHAR
STARTCHAR f
ENCODING 102
SWIDTH 617 0
DWIDTH 8 0
BBX 5 9 2 0
BITMAP
18
20
20
f8
20
20
20
20
f8
ENDCHAR
STARTCHAR g
ENCODING 103
SWIDTH 617 0
DWIDTH 8 0
BBX 7 9 1 -3
BITMAP
76
98
88
f0
40
78
8c
84
78
ENDCHAR
STARTCHAR h
ENCODING 104
SWIDTH 617 0
DWIDTH 8 0
BBX 7 9 1 0
BITMAP
c0
40
40
58
6c
44
44
44
e6
ENDCHAR
STARTCHAR i
ENCODING 105
SWIDTH 617 0
DWIDTH 8 0
BBX 5 9 2 0
BITMAP
20
20
00
e0
20
20
20
20
f8
ENDCHAR
STARTCHAR j
ENCODING 106
SWIDTH 617 0
DWIDTH 8 0
BBX 4 12 2 -3
BITMAP
10
10
00
70
10
10
10
10
10
10
d0
e0
ENDCHAR
STARTCHAR k
ENCODING 107
SWIDTH 617 0
DWIDTH 8 0
BBX 7 9 1 0
BITMAP
c0
40
40
4e
48
70
58
44
e6
ENDCHAR
STARTCHAR l
ENCODING 108
SWIDTH 617 0
DWIDTH 8 0
BBX 5 9 2 0
BITMAP
e0
20
20
20
20
20
20
20
f8
ENDCHAR
STARTCHAR m
ENCODING 109
SWIDTH 617 0
DWIDTH 8 0
BBX 8 6 0 0
BITMAP
f6
49
49
49
49
db
ENDCHAR
STARTCHAR n
ENCODING 110
SWIDTH 617 0
DWIDTH 8 0
BBX 7 6 1 0
BITMAP
d8
6c
44
44
44
ee
ENDCHAR
STARTCHAR o
ENCODING 111
SWIDTH 617 0
DWIDTH 8 0
BBX 6 6 1 0
BITMAP
78
8c
84
84
c4
78
ENDCHAR
STARTCHAR p
ENCODING 112
SWIDTH 617 0
DWIDTH 8 0
BBX 7 9 1 -3
BITMAP
dc
66
42
42
64
58
40
40
e0
ENDCHAR
STARTCHAR q
ENCODING 113
SWIDTH 617 0
DWIDTH 8 0
BBX 7 9 1 -3
BITMAP
3e
44
84
84
cc
74
04
04
0e
ENDCHAR
STARTCHAR r
ENCODING 114
SWIDTH 617 0
DWIDTH 8 0
BBX 7 6 1 0
BITMAP
ce
56
60
40
40
e0
ENDCHAR
STARTCHAR s
ENCODING 115
SWIDTH 617 0
DWIDTH 8 0
BBX 6 6 1 0
BITMAP
78
88
60
38
8c
78
ENDCHAR
STARTCHAR t
ENCODING 116
SWIDTH 617 0
DWIDTH 8 0
BBX 4 8 2 0
BITMAP
40
40
f0
40
40
40
40
70
ENDCHAR
STARTCHAR u
ENCODING 117
SWIDTH 617 0
DWIDTH 8 0
BBX 7 6 1 0
BITMAP
cc
44
44
44
6c
36
ENDCHAR
STARTCHAR v
ENCODING 118
SWIDTH 617 0
DWIDTH 8 0
BBX 7 6 1 0
BITMAP
ee
44
28
28
10
10
ENDCHAR
STARTCHAR w
ENCODING 119
SWIDTH 617 0
DWIDTH 8 0
BBX 8 6 0 0
BITMAP
e7
42
5a
5a
24
24
ENDCHAR
STARTCHAR x
ENCODING 120
SWIDTH 617 0
DWIDTH 8 0
BBX 7 6 1 0
BITMAP
ee
44
38
38
44
ee
ENDCHAR
STARTCHAR y
ENCODING 121
SWIDTH 617 0
DWIDTH 8 0
BBX 7 9 1 -3
BITMAP
ee
44
28
28
30
10
20
a0
c0
ENDCHAR
STARTCHAR z
ENCODING 122
SWIDTH 617 0
DWIDTH 8 0
BBX 6 6 1 0
BITMAP
fc
88
10
20
44
fc
ENDCHAR
STARTCHAR braceleft
ENCODING 123
SWIDTH 617 0
DWIDTH 8 0
BBX 5 11 1 -1
BITMAP
18
20
20
20
60
c0
60
20
20
20
18
ENDCHAR
STARTCHAR bar
ENCODING 124
SWIDTH 617 0
DWIDTH 8 0
BBX 1 13 3 -3
BITMAP
80
80
80
80
80
80
80
80
80
80
80
80
80
ENDCHAR
STARTCHAR braceright
ENCODING 125
SWIDTH 617 0
DWIDTH 8 0
BBX 5 11 1 -1
BITMAP
c0
20
20
20
30
18
30
20
20
20
c0
ENDCHAR
STARTCHAR asciitilde
ENCODING 126
SWIDTH 617 0
DWIDTH 8 0
BBX 6 2 1 3
BITMAP
64
98
ENDCHAR
STARTCHAR exclamdown
ENCODING 161
SWIDTH 617 0
DWIDTH 8 0
BBX 1 9 3 -3
BITMAP
80
80
00
80
80
80
80
80
80
ENDCHAR
STARTCHAR cent
ENCODING 162
SWIDTH 617 0
DWIDTH 8 0
BBX 6 9 1 0
BITMAP
10
10
3c
48
80
cc
78
10
10
ENDCHAR
STARTCHAR sterling
ENCODING 163
SWIDTH 617 0
DWIDTH 8 0
BBX 6 9 1 0
BITMAP
38
48
40
40
f0
40
40
84
fc
ENDCHAR
STARTCHAR currency
ENCODING 164
SWIDTH 617 0
DWIDTH 8 0
BBX 6 6 1 1
BITMAP
84
78
48
48
78
84
ENDCHAR
STARTCHAR yen
ENCODING 165
SWIDTH 617 0
DWIDTH 8 0
BBX 7 9 1 0
BITMAP
c6
44
64
28
7c
10
7c
10
38
ENDCHAR
STARTCHAR brokenbar
ENCODING 166
SWIDTH 617 0
DWIDTH 8 0
BBX 1 13 3 -3
BITMAP
80
80
80
80
80
80
00
80
80
80
80
80
80
ENDCHAR
STARTCHAR section
ENCODING 167
SWIDTH 617 0
DWIDTH 8 0
BBX 6 10 1 -1
BITMAP
7c
84
e0
90
88
44
24
1c
84
f8
ENDCHAR
STARTCHAR dieresis
ENCODING 168
SWIDTH 617 0
DWIDTH 8 0
BBX 5 1 1 7
BITMAP
d8
ENDCHAR
STARTCHAR copyright
ENCODING 169
SWIDTH 617 0
DWIDTH 8 0
BBX 7 8 1 0
BITMAP
38
44
9a
a2
a2
9a
44
38
ENDCHAR
STARTCHAR ordfeminine
ENCODING 170
SWIDTH 617 0
DWIDTH 8 0
BBX 4 6 2 3
BITMAP
c0
20
e0
b0
00
f0
ENDCHAR
STARTCHAR guillemotleft
ENCODING 171
SWIDTH 617 0
DWIDTH 8 0
BBX 7 7 1 0
BITMAP
12
24
48
d8
48
24
12
ENDCHAR
STARTCHAR logicalnot
ENCODING 172
SWIDTH 617 0
DWIDTH 8 0
BBX 6 3 1 2
BITMAP
fc
04
04
ENDCHAR
STARTCHAR hyphen
ENCODING 173
SWIDTH 617 0
DWIDTH 8 0
BBX 5 1 2 3
BITMAP
f8
ENDCHAR
STARTCHAR registered
ENCODING 174
SWIDTH 617 0
DWIDTH 8 0
BBX 7 8 1 0
BITMAP
38
44
b2
aa
b2
aa
44
38
ENDCHAR
STARTCHAR macron
ENCODING 175
SWIDTH 617 0
DWIDTH 8 0
BBX 4 1 2 7
BITMAP
f0
ENDCHAR
STARTCHAR degree
ENCODING 176
SWIDTH 617 0
DWIDTH 8 0
BBX 4 4 2 3
BITMAP
60
90
90
60
ENDCHAR
STARTCHAR plusminus
ENCODING 177
SWIDTH 617 0
DWIDTH 8 0
BBX 7 9 0 0
BITMAP
10
10
10
fe
10
10
10
00
fe
ENDCHAR
STARTCHAR twosuperior
ENCODING 178
SWIDTH 617 0
DWIDTH 8 0
BBX 4 6 2 3
BITMAP
60
90
10
20
40
f0
ENDCHAR
STARTCHAR threesuperior
ENCODING 179
SWIDTH 617 0
DWIDTH 8 0
BBX 4 6 2 3
BITMAP
f0
10
60
10
90
60
ENDCHAR
STARTCHAR acute
ENCODING 180
SWIDTH 617 0
DWIDTH 8 0
BBX 2 2 3 7
BITMAP
40
80
ENDCHAR
STARTCHAR mu
ENCODING 181
SWIDTH 617 0
DWIDTH 8 0
BBX 7 8 1 -2
BITMAP
cc
44
44
44
6c
76
40
40
ENDCHAR
STARTCHAR paragraph
ENCODING 182
SWIDTH 617 0
DWIDTH 8 0
BBX 7 10 1 -1
BITMAP
7e
a4
a4
a4
64
24
24
24
24
66
ENDCHAR
STARTCHAR periodcentered
ENCODING 183
SWIDTH 617 0
DWIDTH 8 0
BBX 2 2 3 2
BITMAP
c0
c0
ENDCHAR
STARTCHAR cedilla
ENCODING 184
SWIDTH 617 0
DWIDTH 8 0
BBX 3 3 2 -3
BITMAP
40
20
e0
ENDCHAR
STARTCHAR onesuperior
ENCODING 185
SWIDTH 617 0
DWIDTH 8 0
BBX 3 6 3 3
BITMAP
40
c0
40
40
40
e0
ENDCHAR
STARTCHAR ordmasculine
ENCODING 186
SWIDTH 617 0
DWIDTH 8 0
BBX 4 6 2 3
BITMAP
60
90
90
60
00
f0
ENDCHAR
STARTCHAR guillemotright
ENCODING 187
SWIDTH 617 0
DWIDTH 8 0
BBX 7 7 1 0
BITMAP
90
48
24
36
24
48
90
ENDCHAR
STARTCHAR onequarter
ENCODING 188
SWIDTH 617 0
DWIDTH 8 0
BBX 7 11 0 -1
BITMAP
40
c0
40
42
44
ea
16
2a
52
9e
02
ENDCHAR
STARTCHAR onehalf
ENCODING 189
SWIDTH 617 0
DWIDTH 8 0
BBX 8 12 0 -2
BITMAP
40
c0
40
42
44
e8
16
29
41
82
04
0f
ENDCHAR
STARTCHAR threequarters
ENCODING 190
SWIDTH 617 0
DWIDTH 8 0
BBX 7 11 0 -1
BITMAP
f0
10
60
12
94
6a
16
2a
52
9e
02
ENDCHAR
STARTCHAR questiondown
ENCODING 191
SWIDTH 617 0
DWIDTH 8 0
BBX 6 10 1 -3
BITMAP
20
20
00
20
20
40
c0
80
cc
78
ENDCHAR
STARTCHAR Agrave
ENCODING 192
SWIDTH 617 0
DWIDTH 8 0
BBX 8 10 0 0
BITMAP
10
08
00
08
08
14
24
3c
42
e7
ENDCHAR
STARTCHAR Aacute
ENCODING 193
SWIDTH 617 0
DWIDTH 8 0
BBX 8 10 0 0
BITMAP
04
08
00
08
08
14
24
3c
42
e7
ENDCHAR
STARTCHAR Acircumflex
ENCODING 194
SWIDTH 617 0
DWIDTH 8 0
BBX 8 10 0 0
BITMAP
0c
12
00
08
08
14
24
3c
42
e7
ENDCHAR
STARTCHAR Atilde
ENCODING 195
SWIDTH 617 0
DWIDTH 8 0
BBX 8 10 0 0
BITMAP
19
26
00
08
08
14
24
3c
42
e7
ENDCHAR
STARTCHAR Adieresis
ENCODING 196
SWIDTH 617 0
DWIDTH 8 0
BBX 8 9 0 0
BITMAP
36
00
08
08
14
24
3c
42
e7
ENDCHAR
STARTCHAR Aring
ENCODING 197
SWIDTH 617 0
DWIDTH 8 0
BBX 8 10 0 0
BITMAP
08
14
14
08
08
14
24
3c
42
e7
ENDCHAR
STARTCHAR AE
ENCODING 198
SWIDTH 617 0
DWIDTH 8 0
BBX 7 9 1 0
BITMAP
1e
1a
18
28
2e
38
48
4a
ee
ENDCHAR
STARTCHAR Ccedilla
ENCODING 199
SWIDTH 617 0
DWIDTH 8 0
BBX 6 12 1 -3
BITMAP
78
cc
80
80
80
80
80
cc
78
20
10
70
ENDCHAR
STARTCHAR Egrave
ENCODING 200
SWIDTH 617 0
DWIDTH 8 0
BBX 6 10 1 0
BITMAP
20
10
00
fc
44
40
70
40
44
fc
ENDCHAR
STARTCHAR Eacute
ENCODING 201
SWIDTH 617 0
DWIDTH 8 0
BBX 6 10 1 0
BITMAP
08
10
00
fc
44
40
70
40
44
fc
ENDCHAR
STARTCHAR Ecircumflex
ENCODING 202
SWIDTH 617 0
DWIDTH 8 0
BBX 6 10 1 0
BITMAP
30
48
00
fc
44
40
70
40
44
fc
ENDCHAR
STARTCHAR Edieresis
ENCODING 203
SWIDTH 617 0
DWIDTH 8 0
BBX 6 9 1 0
BITMAP
6c
00
fc
44
40
70
40
44
fc
ENDCHAR
STARTCHAR Igrave
ENCODING 204
SWIDTH 617 0
DWIDTH 8 0
BBX 5 10 2 0
BITMAP
40
20
00
f8
20
20
20
20
20
f8
ENDCHAR
STARTCHAR Iacute
ENCODING 205
SWIDTH 617 0
DWIDTH 8 0
BBX 5 10 2 0
BITMAP
10
20
00
f8
20
20
20
20
20
f8
ENDCHAR
STARTCHAR Icircumflex
ENCODING 206
SWIDTH 617 0
DWIDTH 8 0
BBX 5 10 2 0
BITMAP
30
48
00
f8
20
20
20
20
20
f8
ENDCHAR
STARTCHAR Idieresis
ENCODING 207
SWIDTH 617 0
DWIDTH 8 0
BBX 5 9 2 0
BITMAP
d8
00
f8
20
20
20
20
20
f8
ENDCHAR
STARTCHAR Eth
ENCODING 208
SWIDTH 617 0
DWIDTH 8 0
BBX 7 9 1 0
BITMAP
f8
4c
46
42
f2
42
42
44
f8
ENDCHAR
STARTCHAR Ntilde
ENCODING 209
SWIDTH 617 0
DWIDTH 8 0
BBX 8 10 0 0
BITMAP
32
4c
00
c7
62
52
4a
46
42
e7
ENDCHAR
STARTCHAR Ograve
ENCODING 210
SWIDTH 617 0
DWIDTH 8 0
BBX 7 10 1 0
BITMAP
20
10
00
3c
46
82
82
82
c4
78
ENDCHAR
STARTCHAR Oacute
ENCODING 211
SWIDTH 617 0
DWIDTH 8 0
BBX 7 10 1 0
BITMAP
08
10
00
3c
46
82
82
82
c4
78
ENDCHAR
STARTCHAR Ocircumflex
ENCODING 212
SWIDTH 617 0
DWIDTH 8 0
BBX 7 10 1 0
BITMAP
18
24
00
3c
46
82
82
82
c4
78
ENDCHAR
STARTCHAR Otilde
ENCODING 213
SWIDTH 617 0
DWIDTH 8 0
BBX 7 10 1 0
BITMAP
32
4c
00
3c
46
82
82
82
c4
78
ENDCHAR
STARTCHAR Odieresis
ENCODING 214
SWIDTH 617 0
DWIDTH 8 0
BBX 7 9 1 0
BITMAP
6c
00
3c
46
82
82
82
c4
78
ENDCHAR
STARTCHAR multiply
ENCODING 215
SWIDTH 617 0
DWIDTH 8 0
BBX 6 6 1 0
BITMAP
84
48
30
30
48
84
ENDCHAR
STARTCHAR Oslash
ENCODING 216
SWIDTH 617 0
DWIDTH 8 0
BBX 8 8 0 0
BITMAP
01
1e
23
45
49
51
62
bc
ENDCHAR
STARTCHAR Ugrave
ENCODING 217
SWIDTH 617 0
DWIDTH 8 0
BBX 8 10 0 0
BITMAP
10
08
00
e7
42
42
42
42
66
3c
ENDCHAR
STARTCHAR Uacute
ENCODING 218
SWIDTH 617 0
DWIDTH 8 0
BBX 8 10 0 0
BITMAP
04
08
00
e7
42
42
42
42
66
3c
ENDCHAR
STARTCHAR Ucircumflex
ENCODING 219
SWIDTH 617 0
DWIDTH 8 0
BBX 8 10 0 0
BITMAP
18
24
00
e7
42
42
42
42
66
3c
ENDCHAR
STARTCHAR Udieresis
ENCODING 220
SWIDTH 617 0
DWIDTH 8 0
BBX 8 9 0 0
BITMAP
36
00
e7
42
42
42
42
66
3c
ENDCHAR
STARTCHAR Yacute
ENCODING 221
SWIDTH 617 0
DWIDTH 8 0
BBX 7 10 1 0
BITMAP
08
10
00
c6
64
28
38
10
10
38
ENDCHAR
STARTCHAR Thorn
ENCODING 222
SWIDTH 617 0
DWIDTH 8 0
BBX 6 8 1 0
BITMAP
e0
40
78
44
44
78
40
e0
ENDCHAR
STARTCHAR germandbls
ENCODING 223
SWIDTH 617 0
DWIDTH 8 0
BBX 7 9 0 0
BITMAP
38
44
44
58
44
42
42
52
cc
ENDCHAR
STARTCHAR agrave
ENCODING 224
SWIDTH 617 0
DWIDTH 8 0
BBX 7 9 1 0
BITMAP
20
10
00
78
04
7c
84
cc
76
ENDCHAR
STARTCHAR aacute
ENCODING 225
SWIDTH 617 0
DWIDTH 8 0
BBX 7 9 1 0
BITMAP
08
10
00
78
04
7c
84
cc
76
ENDCHAR
STARTCHAR acircumflex
ENCODING 226
SWIDTH 617 0
DWIDTH 8 0
BBX 7 9 1 0
BITMAP
30
48
00
78
04
7c
84
cc
76
ENDCHAR
STARTCHAR atilde
ENCODING 227
SWIDTH 617 0
DWIDTH 8 0
BBX 7 9 1 0
BITMAP
32
4c
00
78
04
7c
84
cc
76
ENDCHAR
STARTCHAR adieresis
ENCODING 228
SWIDTH 617 0
DWIDTH 8 0
BBX 7 8 1 0
BITMAP
6c
00
78
04
7c
84
cc
76
ENDCHAR
STARTCHAR aring
ENCODING 229
SWIDTH 617 0
DWIDTH 8 0
BBX 7 10 1 0
BITMAP
10
28
28
10
78
04
7c
84
cc
76
ENDCHAR
STARTCHAR ae
ENCODING 230
SWIDTH 617 0
DWIDTH 8 0
BBX 7 6 1 0
BITMAP
ee
12
7c
90
b2
dc
ENDCHAR
STARTCHAR ccedilla
ENCODING 231
SWIDTH 617 0
DWIDTH 8 0
BBX 6 9 1 -3
BITMAP
3c
48
80
80
cc
78
20
10
70
ENDCHAR
STARTCHAR egrave
ENCODING 232
SWIDTH 617 0
DWIDTH 8 0
BBX 6 9 1 0
BITMAP
40
20
00
78
84
fc
80
c4
78
ENDCHAR
STARTCHAR eacute
ENCODING 233
SWIDTH 617 0
DWIDTH 8 0
BBX 6 9 1 0
BITMAP
10
20
00
78
84
fc
80
c4
78
ENDCHAR
STARTCHAR ecircumflex
ENCODING 234
SWIDTH 617 0
DWIDTH 8 0
BBX 6 9 1 0
BITMAP
30
48
00
78
84
fc
80
c4
78
ENDCHAR
STARTCHAR edieresis
ENCODING 235
SWIDTH 617 0
DWIDTH 8 0
BBX 6 8 1 0
BITMAP
6c
00
78
84
fc
80
c4
78
ENDCHAR
STARTCHAR igrave
ENCODING 236
SWIDTH 617 0
DWIDTH 8 0
BBX 5 9 2 0
BITMAP
80
40
00
e0
20
20
20
20
f8
ENDCHAR
STARTCHAR iacute
ENCODING 237
SWIDTH 617 0
DWIDTH 8 0
BBX 5 9 2 0
BITMAP
20
40
00
e0
20
20
20
20
f8
ENDCHAR
STARTCHAR icircumflex
ENCODING 238
SWIDTH 617 0
DWIDTH 8 0
BBX 5 9 2 0
BITMAP
60
90
00
e0
20
20
20
20
f8
ENDCHAR
STARTCHAR idieresis
ENCODING 239
SWIDTH 617 0
DWIDTH 8 0
BBX 5 8 2 0
BITMAP
d8
00
e0
20
20
20
20
f8
ENDCHAR
STARTCHAR eth
ENCODING 240
SWIDTH 617 0
DWIDTH 8 0
BBX 6 10 1 0
BITMAP
58
20
d0
08
74
8c
84
84
c4
78
ENDCHAR
STARTCHAR ntilde
ENCODING 241
SWIDTH 617 0
DWIDTH 8 0
BBX 7 9 1 0
BITMAP
64
98
00
d8
6c
44
44
44
ee
ENDCHAR
STARTCHAR ograve
ENCODING 242
SWIDTH 617 0
DWIDTH 8 0
BBX 6 9 1 0
BITMAP
20
10
00
78
8c
84
84
c4
78
ENDCHAR
STARTCHAR oacute
ENCODING 243
SWIDTH 617 0
DWIDTH 8 0
BBX 6 9 1 0
BITMAP
10
20
00
78
8c
84
84
c4
78
ENDCHAR
STARTCHAR ocircumflex
ENCODING 244
SWIDTH 617 0
DWIDTH 8 0
BBX 6 9 1 0
BITMAP
30
48
00
78
8c
84
84
c4
78
ENDCHAR
STARTCHAR otilde
ENCODING 245
SWIDTH 617 0
DWIDTH 8 0
BBX 6 9 1 0
BITMAP
64
98
00
78
8c
84
84
c4
78
ENDCHAR
STARTCHAR odieresis
ENCODING 246
SWIDTH 617 0
DWIDTH 8 0
BBX 6 8 1 0
BITMAP
6c
00
78
8c
84
84
c4
78
ENDCHAR
STARTCHAR divide
ENCODING 247
SWIDTH 617 0
DWIDTH 8 0
BBX 7 7 1 0
BITMAP
10
10
00
fe
00
10
10
ENDCHAR
STARTCHAR oslash
ENCODING 248
SWIDTH 617 0
DWIDTH 8 0
BBX 8 6 0 0
BITMAP
3d
46
4a
52
62
bc
ENDCHAR
STARTCHAR ugrave
ENCODING 249
SWIDTH 617 0
DWIDTH 8 0
BBX 7 9 1 0
BITMAP
20
10
00
cc
44
44
44
6c
36
ENDCHAR
STARTCHAR uacute
ENCODING 250
SWIDTH 617 0
DWIDTH 8 0
BBX 7 9 1 0
BITMAP
08
10
00
cc
44
44
44
6c
36
ENDCHAR
STARTCHAR ucircumflex
ENCODING 251
SWIDTH 617 0
DWIDTH 8 0
BBX 7 9 1 0
BITMAP
30
48
00
cc
44
44
44
6c
36
ENDCHAR
STARTCHAR udieresis
ENCODING 252
SWIDTH 617 0
DWIDTH 8 0
BBX 7 8 1 0
BITMAP
6c
00
cc
44
44
44
6c
36
ENDCHAR
STARTCHAR yacute
ENCODING 253
SWIDTH 617 0
DWIDTH 8 0
BBX 7 12 1 -3
BITMAP
08
10
00
ee
44
28
28
30
10
20
a0
c0
ENDCHAR
STARTCHAR thorn
ENCODING 254
SWIDTH 617 0
DWIDTH 8 0
BBX 7 10 1 -2
BITMAP
c0
40
5c
66
42
42
64
58
40
e0
ENDCHAR
STARTCHAR ydieresis
ENCODING 255
SWIDTH 617 0
DWIDTH 8 0
BBX 7 11 1 -3
BITMAP
6c
00
ee
44
28
28
30
10
20
a0
c0
ENDCHAR
ENDFONT
